{"title":"Cloudy.with.a.Chance.of.Meatballs.09.SWESUB.DVDRip.XviD.Zen_Bud","uid":5597123,"size":738216370,"categoryP":"video","categoryS":"movies","magnet":"?xt=urn:btih:074c35b306c171e8480bb38fb282fb5cf09ad622&amp;dn=Cloudy.with.a.Chance.of.Meatballs.09.SWESUB.DVDRip.XviD.Zen_Bud&amp;tr=udp%3A%2F%2Ftracker.openbittorrent.com%3A80&amp;tr=udp%3A%2F%2Fopen.demonii.com%3A1337&amp;tr=udp%3A%2F%2Ftracker.coppersurfer.tk%3A6969&amp;tr=udp%3A%2F%2Fexodus.desync.com%3A6969","seeders":2,"leechers":0,"uploader":"Zen_Bud","files":-1,"time":1275073300,"description":"General\nComplete name                    : Cloudy.with.a.Chance.of.Meatballs.avi\nFormat                           : AVI\nFile size                        : 704 MiB\nDuration                         : 1h 29mn\nOverall bit rate                 : 1 095 Kbps\n\nVideo\nID                               : 0\nFormat                           : MPEG-4 Visual\nCodec ID/Hint                    : XviD\nDuration                         : 1h 29mn\nBit rate                         : 954 Kbps\nWidth                            : 720 pixels\nHeight                           : 496 pixels\nDisplay aspect ratio             : 2.065\nChroma subsampling               : 4:2:0\nBit depth                        : 8 bits\nScan type                        : Progressive\nBits/(Pixel*Frame)               : 0.107\nStream size                      : 613 MiB (87%)\nWriting library                  : XviD 1.1.2 (UTC 2006-11-01)\n\nAudio\nID                               : 1\nFormat                           : MPEG Audio\nMode extension                   : MS Stereo\nCodec ID/Hint                    : MP3\nDuration                         : 1h 29mn\nBit rate                         : 128 Kbps\nChannel(s)                       : 2 channels\nSampling rate                    : 48.0 KHz\nStream size                      : 82.3 MiB (12%)\nWriting library                  : LAME3.98\n\n","torrent":{"xt":"urn:btih:074c35b306c171e8480bb38fb282fb5cf09ad622","amp;dn":"Cloudy.with.a.Chance.of.Meatballs.09.SWESUB.DVDRip.XviD.Zen_Bud","amp;tr":["udp%3A%2F%2Ftracker.openbittorrent.com%3A80","udp%3A%2F%2Fopen.demonii.com%3A1337","udp%3A%2F%2Ftracker.coppersurfer.tk%3A6969","udp%3A%2F%2Fexodus.desync.com%3A6969"],"infoHash":"074c35b306c171e8480bb38fb282fb5cf09ad622","infoHashBuffer":{"type":"Buffer","data":[7,76,53,179,6,193,113,232,72,11,179,143,178,130,251,92,240,154,214,34]},"announce":[],"urlList":[]}}